HIERARCHY
ROOT Hips
{
	OFFSET 48.557701 -11.656214 84.019203
	CHANNELS 6 Xposition Yposition Zposition Xrotation Yrotation Zrotation
	JOINT spine
	{
		OFFSET 0.000000 -0.342408 5.954384
		CHANNELS 3 Xrotation Yrotation Zrotation
		JOINT spine1
		{
			OFFSET 0.000000 -0.000002 8.856018
			CHANNELS 3 Xrotation Yrotation Zrotation
			JOINT spine2
			{
				OFFSET 0.000000 -0.000001 8.485672
				CHANNELS 3 Xrotation Yrotation Zrotation
				JOINT Neck
				{
					OFFSET 0.000000 -1.038704 21.786301
					CHANNELS 3 Xrotation Yrotation Zrotation
					JOINT Head
					{
						OFFSET 0.000000 -0.000001 6.582199
						CHANNELS 3 Xrotation Yrotation Zrotation
						End Site
						{
							OFFSET 0.000000 5.254357 15.932602
						}
					}
				}
				JOINT RightShoulder
				{
					OFFSET -3.573071 0.497523 9.163864
					CHANNELS 3 Xrotation Yrotation Zrotation
					JOINT RightArm
					{
						OFFSET 0.000000 -0.000002 12.019196
						CHANNELS 3 Xrotation Yrotation Zrotation
						JOINT RightArmRoll
						{
							OFFSET 0.000000 -0.000001 6.067535
							CHANNELS 3 Xrotation Yrotation Zrotation
							JOINT RightForeArm
							{
								OFFSET 0.000000 -0.000003 17.672592
								CHANNELS 3 Xrotation Yrotation Zrotation
								JOINT RightForeArmRoll
								{
									OFFSET 0.000000 -0.000001 6.808716
									CHANNELS 3 Xrotation Yrotation Zrotation
									JOINT RightHand
									{
										OFFSET 0.000000 -0.000003 13.663605
										CHANNELS 3 Xrotation Yrotation Zrotation
										End Site
										{
											OFFSET 0.000000 0.000000 0.100006
										}
									}
								}
							}
						}
					}
				}
				JOINT LeftShoulder
				{
					OFFSET 3.573071 0.497523 9.163864
					CHANNELS 3 Xrotation Yrotation Zrotation
					JOINT LeftArm
					{
						OFFSET 0.000000 -0.000002 12.019196
						CHANNELS 3 Xrotation Yrotation Zrotation
						JOINT LeftArmRoll
						{
							OFFSET 0.000000 -0.000001 6.067535
							CHANNELS 3 Xrotation Yrotation Zrotation
							JOINT LeftForeArm
							{
								OFFSET 0.000000 -0.000003 17.672592
								CHANNELS 3 Xrotation Yrotation Zrotation
								JOINT LeftForeArmRoll
								{
									OFFSET 0.000000 -0.000001 6.808716
									CHANNELS 3 Xrotation Yrotation Zrotation
									JOINT LeftHand
									{
										OFFSET 0.000000 -0.000003 13.663605
										CHANNELS 3 Xrotation Yrotation Zrotation
										End Site
										{
											OFFSET 0.000000 0.000000 0.100006
										}
									}
								}
							}
						}
					}
				}
			}
		}
	}
	JOINT RightUpLeg
	{
		OFFSET -5.277740 0.811858 -0.967796
		CHANNELS 3 Xrotation Yrotation Zrotation
		JOINT RightUpLegRoll
		{
			OFFSET 0.000000 -0.000003 16.021400
			CHANNELS 3 Xrotation Yrotation Zrotation
			JOINT RightLeg
			{
				OFFSET 0.000000 0.000003 -19.840096
				CHANNELS 3 Xrotation Yrotation Zrotation
				JOINT RightLegRoll
				{
					OFFSET 0.000000 -0.000003 19.904999
					CHANNELS 3 Xrotation Yrotation Zrotation
					JOINT RightFoot
					{
						OFFSET 0.000000 -0.000003 16.567497
						CHANNELS 3 Xrotation Yrotation Zrotation
						JOINT RightToeBase
						{
							OFFSET 0.000000 -0.000002 13.849602
							CHANNELS 3 Xrotation Yrotation Zrotation
							End Site
							{
								OFFSET 0.005871 0.773116 6.707275
							}
						}
					}
				}
			}
		}
	}
	JOINT LeftUpLeg
	{
		OFFSET 5.277740 0.811858 -0.967796
		CHANNELS 3 Xrotation Yrotation Zrotation
		JOINT LeftUpLegRoll
		{
			OFFSET 0.000000 -0.000003 16.021500
			CHANNELS 3 Xrotation Yrotation Zrotation
			JOINT LeftLeg
			{
				OFFSET 0.000000 -0.000003 19.839996
				CHANNELS 3 Xrotation Yrotation Zrotation
				JOINT LeftLegRoll
				{
					OFFSET 0.000000 -0.000004 20.089005
					CHANNELS 3 Xrotation Yrotation Zrotation
					JOINT LeftFoot
					{
						OFFSET 0.000000 -0.000003 16.383499
						CHANNELS 3 Xrotation Yrotation Zrotation
						JOINT LeftToeBase
						{
							OFFSET 0.000000 -0.000002 13.849594
							CHANNELS 3 Xrotation Yrotation Zrotation
							End Site
							{
								OFFSET -0.026310 0.773116 6.707275
							}
						}
					}
				}
			}
		}
	}
}
MOTION
Frames: 4
Frame Time: 0.041667
51.222904 -13.675314 83.233704 -0.174501 9.421731 98.546871 -3.781778 0.983053 -0.049112 -3.547775 1.968164 -0.050930 -1.902311 1.967416 -0.073293 -38.551541 26.618922 -1.163240 18.004515 -20.291107 -12.469383 8.661251 -59.259992 10.194151 54.886471 -10.012209 81.939683 -0.000029 0.000001 0.000010 66.792871 2.647881 -4.364873 0.000018 0.000011 -2.999203 -4.999726 -7.999872 0.000008 -48.383564 68.667901 55.226341 -83.062661 121.657677 81.618568 0.000002 -0.000003 -0.000009 -0.027015 -3.642513 1.990811 -0.000000 -0.000037 3.011593 -5.000184 7.999958 -0.000004 -7.532730 -184.924380 -3.157855 -179.999991 0.000004 -1.006001 168.694990 2.923267 -0.319880 -0.000000 0.000003 0.384406 71.398153 6.834922 2.114967 26.880191 -7.380903 -0.842931 -27.336937 -177.573608 4.863446 -0.000003 -0.000005 -0.702943 -17.856162 -0.814021 0.520389 0.000000 -0.000004 -0.204150 69.234199 -6.866501 -2.186577 25.456955 7.355612 -0.000192 
51.200302 -13.687414 83.225601 -0.075714 9.465268 98.314358 -3.796643 0.996547 -0.047240 -3.575930 1.995031 -0.045767 -1.930450 1.994348 -0.068680 -38.717863 27.099298 -0.917778 18.082861 -20.919355 -12.393399 9.541147 -58.763471 11.303009 54.830033 -9.547707 81.883429 -0.000029 0.000002 0.000009 64.755241 2.715918 -4.322669 0.000016 0.000012 -2.999160 -4.999726 -7.999874 0.000005 -49.712200 68.857623 56.659076 -84.222707 121.797340 82.414401 0.000002 -0.000002 -0.000009 -0.026992 -3.641489 1.990809 0.000000 -0.000041 3.011591 -5.000184 7.999959 -0.000005 -7.536222 -184.810302 -3.120382 -179.999991 0.000005 -1.004004 168.755738 2.926817 -0.319403 0.000001 0.000003 0.382634 71.396719 6.835101 2.114084 26.846135 -7.379328 -0.823443 -27.284102 -177.536014 4.860387 -0.000004 -0.000004 -0.701942 -17.809976 -0.795679 0.520871 0.000000 -0.000004 -0.203154 69.221788 -6.866992 -2.186338 25.456955 7.355613 -0.000192 
51.182804 -13.679617 83.223701 0.017771 9.507835 98.087172 -3.810491 1.009664 -0.045271 -3.602194 2.021123 -0.040430 -1.956707 2.020502 -0.063871 -38.895482 27.564729 -0.674579 18.170810 -21.527868 -12.317516 10.355508 -58.247286 12.341242 54.782782 -9.053205 81.823166 -0.000028 -0.000000 0.000008 62.650074 2.785351 -4.273679 0.000017 0.000006 -2.999151 -4.999728 -7.999876 0.000004 -51.036570 69.032326 58.086292 -85.345809 121.952153 83.185434 0.000003 -0.000003 -0.000009 -0.026988 -3.640682 1.990807 0.000002 -0.000041 3.011591 -5.000182 7.999959 -0.000005 -7.542284 -184.698205 -3.083254 -179.999991 0.000005 -1.002994 168.812374 2.931318 -0.318515 0.000001 0.000003 0.381197 71.397313 6.835254 2.113174 26.810560 -7.377751 -0.802964 -27.232801 -177.497506 4.857129 -0.000003 -0.000004 -0.700908 -17.762990 -0.777519 0.521247 0.000000 -0.000004 -0.202011 69.208012 -6.867515 -2.186189 25.456953 7.355613 -0.000191 
51.153801 -13.661919 83.217499 0.105294 9.549949 97.868544 -3.823068 1.022291 -0.043184 -3.626065 2.046259 -0.034896 -1.980562 2.045699 -0.058840 -39.087704 28.010498 -0.435084 18.270751 -22.110000 -12.242871 11.093486 -57.712865 13.296125 54.747771 -8.523858 81.758806 -0.000028 -0.000001 0.000004 60.470281 2.855943 -4.216958 0.000016 0.000008 -2.999192 -4.999724 -7.999871 0.000005 -52.344388 69.191025 59.494861 -86.422083 122.122785 83.925560 0.000002 -0.000002 -0.000008 -0.027010 -3.640150 1.990817 0.000001 -0.000042 3.011590 -5.000182 7.999959 -0.000007 -7.552505 -184.588048 -3.047351 -179.999991 0.000005 -1.001000 168.862794 2.935753 -0.317316 0.000001 0.000003 0.380258 71.401056 6.835301 2.112352 26.772769 -7.376189 -0.781136 -27.184872 -177.460828 4.855418 -0.000006 -0.000004 -0.699826 -17.714910 -0.759914 0.521466 0.000000 -0.000004 -0.200667 69.192350 -6.868079 -2.185963 25.456953 7.355613 -0.000192 
